<svg id="Layer_1" data-name="Layer 1" xmlns="http://www.w3.org/2000/svg" viewBox="0 0 612 792"><defs><style>.cls-1{fill:#00aeef;stroke:#00aeef;stroke-miterlimit:10;stroke-width:69px;opacity:0.91;}</style></defs><title>Joe-Gleiter-svg</title><path class="cls-1" d="M325.27,168.61c-100.27,0-181.85,81.58-181.85,181.86,0,20,5.54,44.24,13.71,69.17l.81,2.76a7.89,7.89,0,0,0,.7,2,5,5,0,0,1,.35.79c18.49,54.07,48.32,110,60.2,131.4,19.77,35.6,40.76,68.51,59.08,92.67,28,37,40.25,41.22,47,41.22,6.57,0,18.53-4.28,46.47-41.23,18.34-24.25,39.33-57.16,59.13-92.65,17.89-32.08,76.26-141.74,76.26-206.12C507.13,250.19,425.55,168.61,325.27,168.61Zm0,14c92.56,0,167.86,75.3,167.86,167.86,0,32.79-17.71,86.82-48.52,149.75a5.27,5.27,0,0,1-5.11,3,8.21,8.21,0,0,0-2.14.09c-41.4,7.09-88.73-16.1-105.14-55.6a43.2,43.2,0,0,1,.23-35.11c5.08-11.45,13-21.38,19.95-31.73,14.5-21.72,28-46.21,35.5-71.35,3.52-11.75,2.75-24-4.26-34.34-6.5-9.56-16.18-16.6-26.68-21.22-21.58-9.49-45.48-11-68.53-7-46.27,7.91-90.21,37.68-117,75.9-.56.8-1.11,1.59-1.64,2.4-3.26,4.85-10.87,1.91-9.86-3.85C173.76,242.64,242.63,182.61,325.27,182.61ZM419,549.16c-19.41,34.86-40,67.19-58,91-26.75,35.51-35.68,36.27-35.76,36.28s-9.09-.41-35.84-35.68c-17.94-23.65-38.54-56-58-91-21.59-38.86-44.05-85.64-58.49-127.34a5.67,5.67,0,0,1-.29-1.92,8.15,8.15,0,0,0-.22-2q-3.68-15.89-7.37-31.76c-1.38-5.93,3-24,1-16.18-2.87,10.87,6.74-21.33,12.43-31,22.68-38.53,64.93-67.93,108.51-77.16,21.26-4.51,45.2-3.92,65.07,5.71,8.58,4.16,17.56,10.37,21.4,19.48,4.81,11.42-2,24.48-6.49,34.95-10.09,23.7-23.77,44.71-38,66-6.65,10-12.78,20.83-14.74,32.79-2.06,12.52.67,24.66,6,36C338.87,497.14,383,520.52,426,519.29a5.39,5.39,0,0,1,4.91,7.91Q425.16,538.06,419,549.16Z"/></svg>